rat_kapali_dongu_referansli_zemin_x10_YAVAS4x
version=1
nRows=62
nColumns=15
inDegrees=yes
endheader
time	sacrum_pitch	sacrum_roll	sacrum_yaw	sacrum_x	sacrum_y	sacrum_z	sacroiliac_flx	hip_flx	hip_add	hip_int	knee_flx	ankle_flx	ankle_add	ankle_int
8.126400	22.370217	0.000000	0.000000	0.000000	0.672500	0.000000	3.700000	46.431047	-10.000000	0.000000	-126.618926	18.316380	-5.000000	0.000000
8.127200	22.370217	0.000000	0.000000	0.000000	0.672500	0.000000	3.700000	46.364878	-10.000000	0.000000	-126.628924	18.327993	-5.000000	0.000000
8.128000	22.370217	0.000000	0.000000	0.000000	0.672500	0.000000	3.700000	46.298662	-10.000000	0.000000	-126.638569	18.339255	-5.000000	0.000000
8.128800	22.370217	0.000000	0.000000	0.000000	0.672500	0.000000	3.700000	46.232408	-10.000000	0.000000	-126.647867	18.350156	-5.000000	0.000000
8.129600	22.370217	0.000000	0.000000	0.000000	0.672500	0.000000	3.700000	46.166122	-10.000000	0.000000	-126.656826	18.360695	-5.000000	0.000000
8.130400	22.370217	0.000000	0.000000	0.000000	0.672500	0.000000	3.700000	46.099812	-10.000000	0.000000	-126.665447	18.370867	-5.000000	0.000000
8.131200	22.370217	0.000000	0.000000	0.000000	0.672500	0.000000	3.700000	46.033484	-10.000000	0.000000	-126.673734	18.380672	-5.000000	0.000000
8.132000	22.370217	0.000000	0.000000	0.000000	0.672500	0.000000	3.700000	45.967144	-10.000000	0.000000	-126.681690	18.390109	-5.000000	0.000000
8.132800	22.370217	0.000000	0.000000	0.000000	0.672500	0.000000	3.700000	45.900797	-10.000000	0.000000	-126.689318	18.399180	-5.000000	0.000000
8.133600	22.370217	0.000000	0.000000	0.000000	0.672500	0.000000	3.700000	45.834450	-10.000000	0.000000	-126.696620	18.407882	-5.000000	0.000000
8.134400	22.370217	0.000000	0.000000	0.000000	0.672500	0.000000	3.700000	45.768107	-10.000000	0.000000	-126.703599	18.416228	-5.000000	0.000000
8.135200	22.370217	0.000000	0.000000	0.000000	0.672500	0.000000	3.700000	45.701774	-10.000000	0.000000	-126.710265	18.424234	-5.000000	0.000000
8.136000	22.370217	0.000000	0.000000	0.000000	0.672500	0.000000	3.700000	45.635458	-10.000000	0.000000	-126.716628	18.431897	-5.000000	0.000000
8.136800	22.370217	0.000000	0.000000	0.000000	0.672500	0.000000	3.700000	45.569165	-10.000000	0.000000	-126.722697	18.439212	-5.000000	0.000000
8.137600	22.370217	0.000000	0.000000	0.000000	0.672500	0.000000	3.700000	45.502900	-10.000000	0.000000	-126.728476	18.446175	-5.000000	0.000000
8.138400	22.370217	0.000000	0.000000	0.000000	0.672500	0.000000	3.700000	45.436668	-10.000000	0.000000	-126.733971	18.452787	-5.000000	0.000000
8.139200	22.370217	0.000000	0.000000	0.000000	0.672500	0.000000	3.700000	45.370473	-10.000000	0.000000	-126.739182	18.459046	-5.000000	0.000000
8.140000	22.370217	0.000000	0.000000	0.000000	0.672500	0.000000	3.700000	45.304318	-10.000000	0.000000	-126.744113	18.464953	-5.000000	0.000000
8.140800	22.370217	0.000000	0.000000	0.000000	0.672500	0.000000	3.700000	45.238206	-10.000000	0.000000	-126.748764	18.470508	-5.000000	0.000000
8.141600	22.370217	0.000000	0.000000	0.000000	0.672500	0.000000	3.700000	45.172139	-10.000000	0.000000	-126.753136	18.475715	-5.000000	0.000000
8.142400	22.370217	0.000000	0.000000	0.000000	0.672500	0.000000	3.700000	45.106121	-10.000000	0.000000	-126.757234	18.480604	-5.000000	0.000000
8.143200	22.370217	0.000000	0.000000	0.000000	0.672500	0.000000	3.700000	45.040154	-10.000000	0.000000	-126.761069	18.485185	-5.000000	0.000000
8.144000	22.370217	0.000000	0.000000	0.000000	0.672500	0.000000	3.700000	44.974243	-10.000000	0.000000	-126.764651	18.489480	-5.000000	0.000000
8.144800	22.370217	0.000000	0.000000	0.000000	0.672500	0.000000	3.700000	44.908386	-10.000000	0.000000	-126.767990	18.493588	-5.000000	0.000000
8.145600	22.370217	0.000000	0.000000	0.000000	0.672500	0.000000	3.700000	44.842580	-10.000000	0.000000	-126.771098	18.497795	-5.000000	0.000000
8.146400	22.370217	0.000000	0.000000	0.000000	0.672500	0.000000	3.700000	44.776824	-10.000000	0.000000	-126.773997	18.502239	-5.000000	0.000000
8.147200	22.370217	0.000000	0.000000	0.000000	0.672500	0.000000	3.700000	44.711131	-10.000000	0.000000	-126.776722	18.506840	-5.000000	0.000000
8.148000	22.370217	0.000000	0.000000	0.000000	0.672500	0.000000	3.700000	44.645519	-10.000000	0.000000	-126.779293	18.511089	-5.000000	0.000000
8.148800	22.370217	0.000000	0.000000	0.000000	0.672500	0.000000	3.700000	44.580001	-10.000000	0.000000	-126.781734	18.514782	-5.000000	0.000000
8.149600	22.370217	0.000000	0.000000	0.000000	0.672500	0.000000	3.700000	44.514584	-10.000000	0.000000	-126.784070	18.517828	-5.000000	0.000000
8.150400	22.370217	0.000000	0.000000	0.000000	0.672500	0.000000	3.700000	44.449277	-10.000000	0.000000	-126.786320	18.520084	-5.000000	0.000000
8.151200	22.370217	0.000000	0.000000	0.000000	0.672500	0.000000	3.700000	44.384085	-10.000000	0.000000	-126.788496	18.521429	-5.000000	0.000000
8.152000	22.370217	0.000000	0.000000	0.000000	0.672500	0.000000	3.700000	44.319009	-10.000000	0.000000	-126.790603	18.521768	-5.000000	0.000000
8.152800	22.370217	0.000000	0.000000	0.000000	0.672500	0.000000	3.700000	44.254055	-10.000000	0.000000	-126.792637	18.520912	-5.000000	0.000000
8.153600	22.370217	0.000000	0.000000	0.000000	0.672500	0.000000	3.700000	44.189223	-10.000000	0.000000	-126.794582	18.518595	-5.000000	0.000000
8.154400	22.370217	0.000000	0.000000	0.000000	0.672500	0.000000	3.700000	44.124514	-10.000000	0.000000	-126.796414	18.514586	-5.000000	0.000000
8.155200	22.370217	0.000000	0.000000	0.000000	0.672500	0.000000	3.700000	44.059922	-10.000000	0.000000	-126.798102	18.508756	-5.000000	0.000000
8.156000	22.370217	0.000000	0.000000	0.000000	0.672500	0.000000	3.700000	43.995443	-10.000000	0.000000	-126.799631	18.501050	-5.000000	0.000000
8.156800	22.370217	0.000000	0.000000	0.000000	0.672500	0.000000	3.700000	43.931069	-10.000000	0.000000	-126.800996	18.491483	-5.000000	0.000000
8.157600	22.370217	0.000000	0.000000	0.000000	0.672500	0.000000	3.700000	43.866791	-10.000000	0.000000	-126.802168	18.480054	-5.000000	0.000000
8.158400	22.370217	0.000000	0.000000	0.000000	0.672500	0.000000	3.700000	43.802598	-10.000000	0.000000	-126.803127	18.466811	-5.000000	0.000000
8.159200	22.370217	0.000000	0.000000	0.000000	0.672500	0.000000	3.700000	43.738482	-10.000000	0.000000	-126.803848	18.451783	-5.000000	0.000000
8.160000	22.370217	0.000000	0.000000	0.000000	0.672500	0.000000	3.700000	43.674431	-10.000000	0.000000	-126.804321	18.435035	-5.000000	0.000000
8.160800	22.370217	0.000000	0.000000	0.000000	0.672500	0.000000	3.700000	43.610440	-10.000000	0.000000	-126.804545	18.416635	-5.000000	0.000000
8.161600	22.370217	0.000000	0.000000	0.000000	0.672500	0.000000	3.700000	43.546502	-10.000000	0.000000	-126.804528	18.396643	-5.000000	0.000000
8.162400	22.370217	0.000000	0.000000	0.000000	0.672500	0.000000	3.700000	43.482613	-10.000000	0.000000	-126.804282	18.375123	-5.000000	0.000000
8.163200	22.370217	0.000000	0.000000	0.000000	0.672500	0.000000	3.700000	43.418768	-10.000000	0.000000	-126.803820	18.352128	-5.000000	0.000000
8.164000	22.370217	0.000000	0.000000	0.000000	0.672500	0.000000	3.700000	43.354964	-10.000000	0.000000	-126.803156	18.327713	-5.000000	0.000000
8.164800	22.370217	0.000000	0.000000	0.000000	0.672500	0.000000	3.700000	43.291198	-10.000000	0.000000	-126.802307	18.301917	-5.000000	0.000000
8.165600	22.370217	0.000000	0.000000	0.000000	0.672500	0.000000	3.700000	43.227466	-10.000000	0.000000	-126.801287	18.274776	-5.000000	0.000000
8.166400	22.370217	0.000000	0.000000	0.000000	0.672500	0.000000	3.700000	43.163769	-10.000000	0.000000	-126.800113	18.246301	-5.000000	0.000000
8.167200	22.370217	0.000000	0.000000	0.000000	0.672500	0.000000	3.700000	43.100103	-10.000000	0.000000	-126.798802	18.216512	-5.000000	0.000000
8.168000	22.370217	0.000000	0.000000	0.000000	0.672500	0.000000	3.700000	43.036467	-10.000000	0.000000	-126.797368	18.185442	-5.000000	0.000000
8.168800	22.370217	0.000000	0.000000	0.000000	0.672500	0.000000	3.700000	42.972862	-10.000000	0.000000	-126.795829	18.153105	-5.000000	0.000000
8.169600	22.370217	0.000000	0.000000	0.000000	0.672500	0.000000	3.700000	42.909284	-10.000000	0.000000	-126.794202	18.119529	-5.000000	0.000000
8.170400	22.370217	0.000000	0.000000	0.000000	0.672500	0.000000	3.700000	42.845733	-10.000000	0.000000	-126.792497	18.084737	-5.000000	0.000000
8.171200	22.370217	0.000000	0.000000	0.000000	0.672500	0.000000	3.700000	42.782206	-10.000000	0.000000	-126.790722	18.048759	-5.000000	0.000000
8.172000	22.370217	0.000000	0.000000	0.000000	0.672500	0.000000	3.700000	42.718700	-10.000000	0.000000	-126.788882	18.011616	-5.000000	0.000000
8.172800	22.370217	0.000000	0.000000	0.000000	0.672500	0.000000	3.700000	42.655212	-10.000000	0.000000	-126.786977	17.973327	-5.000000	0.000000
8.173600	22.370217	0.000000	0.000000	0.000000	0.672500	0.000000	3.700000	42.591738	-10.000000	0.000000	-126.785009	17.933918	-5.000000	0.000000
8.174400	22.370217	0.000000	0.000000	0.000000	0.672500	0.000000	3.700000	42.528274	-10.000000	0.000000	-126.782973	17.893388	-5.000000	0.000000
8.175200	22.370217	0.000000	0.000000	0.000000	0.672500	0.000000	3.700000	42.464818	-10.000000	0.000000	-126.780867	17.851786	-5.000000	0.000000
